<?xml version="1.0" encoding="UTF-8" standalone="no"?>
<!-- Created with Inkscape (http://www.inkscape.org/) -->

<svg
   width="160"
   height="160"
   viewBox="0 0 42.333332 42.333332"
   version="1.1"
   id="svg5"
   inkscape:version="1.2.2 (b0a84865, 2022-12-01)"
   sodipodi:docname="MeeniERP.svg"
   xml:space="preserve"
   xmlns:inkscape="http://www.inkscape.org/namespaces/inkscape"
   xmlns:sodipodi="http://sodipodi.sourceforge.net/DTD/sodipodi-0.dtd"
   xmlns="http://www.w3.org/2000/svg"
   xmlns:svg="http://www.w3.org/2000/svg"><sodipodi:namedview
     id="namedview7"
     pagecolor="#ffffff"
     bordercolor="#999999"
     borderopacity="1"
     inkscape:showpageshadow="0"
     inkscape:pageopacity="0"
     inkscape:pagecheckerboard="0"
     inkscape:deskcolor="#d1d1d1"
     inkscape:document-units="mm"
     showgrid="false"
     inkscape:zoom="0.60546875"
     inkscape:cx="-276.64516"
     inkscape:cy="-145.34194"
     inkscape:window-width="1920"
     inkscape:window-height="956"
     inkscape:window-x="0"
     inkscape:window-y="25"
     inkscape:window-maximized="0"
     inkscape:current-layer="layer1" /><defs
     id="defs2"><clipPath
       clipPathUnits="userSpaceOnUse"
       id="clipPath40939"><circle
         style="fill:#1e648c;fill-opacity:1;stroke:none;stroke-width:2.33434;stroke-linecap:round;stroke-opacity:1"
         id="circle40941"
         cx="97.949608"
         cy="30.709999"
         r="21.166666" /></clipPath><clipPath
       clipPathUnits="userSpaceOnUse"
       id="clipPath55457"><rect
         style="opacity:1;fill:#021a30;fill-opacity:1;stroke:none;stroke-width:2.38236;stroke-linecap:round;stroke-dasharray:none;stroke-opacity:1"
         id="rect55459"
         width="334.43332"
         height="52.916668"
         x="-101.13313"
         y="-136.72441" /></clipPath><clipPath
       clipPathUnits="userSpaceOnUse"
       id="clipPath84544"><rect
         style="fill:#004475;fill-opacity:1;stroke:none;stroke-width:1;stroke-linecap:round;stroke-dasharray:none;stroke-opacity:1"
         id="rect84546"
         width="70.114586"
         height="70.114586"
         x="579.34961"
         y="-187.56654" /></clipPath></defs><g
     inkscape:label="Layer 1"
     inkscape:groupmode="layer"
     id="layer1"><circle
       style="fill:#1e648c;fill-opacity:1;stroke:none;stroke-width:2.33434;stroke-linecap:round;stroke-opacity:1"
       id="path3548-65"
       cx="21.166666"
       cy="21.166666"
       r="21.166666"
       inkscape:export-filename="icon.png"
       inkscape:export-xdpi="96"
       inkscape:export-ydpi="96" /><text
       xml:space="preserve"
       style="font-style:normal;font-variant:normal;font-weight:normal;font-stretch:normal;font-size:50.6402px;line-height:7.92504px;font-family:'Apple Chancery';-inkscape-font-specification:'Apple Chancery';text-align:center;text-anchor:middle;fill:#dcdcdc;fill-opacity:1;stroke:none;stroke-width:0.564727;stroke-linecap:round;stroke-dasharray:none;stroke-opacity:1"
       x="19.83143"
       y="32.676926"
       id="text3484-3"><tspan
         sodipodi:role="line"
         id="tspan3482-8"
         style="fill:#dcdcdc;fill-opacity:1;stroke:none;stroke-width:0.564727;stroke-dasharray:none;stroke-opacity:1"
         x="19.83143"
         y="32.676926">m</tspan></text><rect
       style="fill:#1e648c;fill-opacity:1;stroke:none;stroke-width:1.5;stroke-linecap:round;stroke-dasharray:none;stroke-opacity:1"
       id="rect89860-8"
       width="334.43332"
       height="52.916672"
       x="-146.04999"
       y="-118.46051"
       inkscape:export-filename="cover.png"
       inkscape:export-xdpi="96"
       inkscape:export-ydpi="96" /><rect
       style="fill:#dcdcdc;fill-opacity:1;stroke:none;stroke-width:1.5;stroke-linecap:round;stroke-dasharray:none;stroke-opacity:1"
       id="rect91473-3"
       width="79.374977"
       height="79.375"
       x="-18.520817"
       y="-92.002182"
       inkscape:export-filename="logo.png"
       inkscape:export-xdpi="96"
       inkscape:export-ydpi="96" /><g
       id="g51531-0-0"
       transform="translate(-85.993854,8.3783501)"
       style="fill:#1e648c;fill-opacity:1;stroke:none;stroke-opacity:1"><g
         aria-label="meeni"
         id="text3484-9-0-9"
         style="font-size:16.6412px;line-height:12.7522px;font-family:'Apple Chancery';-inkscape-font-specification:'Apple Chancery';text-align:center;text-anchor:middle;fill:#1e648c;fill-opacity:1;stroke:none;stroke-width:0.185579;stroke-linecap:round;stroke-opacity:1"
         transform="translate(72.103226,-91.363049)"><path
           d="m 8.9259128,62.968687 -1.2025866,0.49566 0.024377,-0.227516 0.065005,-0.601293 0.056879,-0.568791 0.4062793,-3.648388 0.056879,-0.414405 q 0.032502,-0.325023 0.032502,-0.633796 0,-0.788181 -0.4794095,-0.788181 -0.7475539,0 -1.7470009,1.52761 -0.9913214,1.52761 -1.1457076,2.908959 l -0.2112652,1.950141 -1.2107122,0.49566 0.024377,-0.227516 0.065005,-0.601293 0.065005,-0.568791 0.4144049,-3.770272 0.048754,-0.430656 q 0.056879,-0.503786 0.056879,-0.812558 0,-0.520038 -0.2600188,-0.520038 -0.6094189,0 -1.3163448,1.38135 -0.1868885,-0.154387 -0.1868885,-0.268145 0,-0.487535 0.8856888,-1.32447 0.8938144,-0.845061 1.4138519,-0.845061 0.6988004,0 0.6988004,0.893814 0,0.227517 -0.040628,0.609419 l -0.065005,0.658173 -0.065005,0.55254 -0.065005,0.576916 0.2275164,-0.357526 q 1.8201311,-2.933336 3.3883691,-2.933336 0.7556795,0 0.7556795,1.088828 0,0.186889 -0.065005,0.788182 l -0.081256,0.747554 -0.1137582,1.015698 q 0.7556792,-1.568238 1.7876292,-2.600187 1.040075,-1.040075 1.852633,-1.040075 0.804433,0 0.804433,1.040075 0,0.446907 -0.08938,1.064452 l -0.430656,3.014592 q -0.138135,0.934442 -0.138135,1.446354 0,0.430656 0.235642,0.430656 0.27627,0 0.690674,-0.463158 0.422531,-0.463159 0.674424,-1.048201 0.219391,0.146261 0.219391,0.268144 0,0.511912 -0.910066,1.373224 -0.90194,0.861312 -1.438228,0.861312 -0.690675,0 -0.690675,-0.926316 0,-0.585042 0.178763,-1.812006 l 0.284395,-1.958266 q 0.01625,-0.105633 0.05688,-0.463158 0.01625,-0.146261 0.05688,-0.495661 0.04063,-0.3494 0.04063,-0.536289 0,-0.690674 -0.455032,-0.690674 -0.763805,0 -1.779504,1.52761 -1.0075723,1.52761 -1.1619585,2.908959 z"
           id="path6871-5-0"
           style="fill:#1e648c;fill-opacity:1;stroke:none;stroke-opacity:1" /><path
           d="m 20.244853,60.669146 q 0.20314,0.138135 0.20314,0.325024 0,0.251893 -0.520037,0.861312 -1.389476,1.608865 -2.746448,1.608865 -0.82881,0 -1.365099,-0.658172 -0.536288,-0.658172 -0.536288,-1.681996 0,-1.852634 1.3976,-3.745895 1.405727,-1.901387 2.778951,-1.901387 0.991321,0 0.991321,1.064452 0,1.194461 -1.161959,2.332043 -1.153833,1.137582 -2.819578,1.584489 0.162512,1.958266 1.543861,1.958266 1.365099,0 2.234536,-1.747001 z m -3.745894,-1.202587 q 0.235642,0.08126 0.430656,0.08126 1.007572,0 1.763252,-0.617544 0.755679,-0.617545 0.755679,-1.446354 0,-0.950694 -0.966945,-0.950694 -0.6988,0 -1.267591,0.836935 -0.560665,0.82881 -0.715051,2.096401 z"
           id="path6873-6-7"
           style="fill:#1e648c;fill-opacity:1;stroke:none;stroke-opacity:1" /><path
           d="m 26.022143,60.669146 q 0.203139,0.138135 0.203139,0.325024 0,0.251893 -0.520037,0.861312 -1.389475,1.608865 -2.746448,1.608865 -0.82881,0 -1.365098,-0.658172 -0.536289,-0.658172 -0.536289,-1.681996 0,-1.852634 1.397601,-3.745895 1.405726,-1.901387 2.77895,-1.901387 0.991321,0 0.991321,1.064452 0,1.194461 -1.161958,2.332043 -1.153833,1.137582 -2.819578,1.584489 0.162511,1.958266 1.543861,1.958266 1.365098,0 2.234536,-1.747001 z m -3.745895,-1.202587 q 0.235642,0.08126 0.430656,0.08126 1.007573,0 1.763252,-0.617544 0.755679,-0.617545 0.755679,-1.446354 0,-0.950694 -0.966944,-0.950694 -0.698801,0 -1.267592,0.836935 -0.560665,0.82881 -0.715051,2.096401 z"
           id="path6875-7-6"
           style="fill:#1e648c;fill-opacity:1;stroke:none;stroke-opacity:1" /><path
           d="m 29.052987,62.968687 -1.210712,0.49566 0.02438,-0.227516 0.065,-0.601293 0.065,-0.568791 0.422531,-3.770272 0.04875,-0.430656 q 0.04875,-0.503786 0.04875,-0.812558 0,-0.520038 -0.260019,-0.520038 -0.609419,0 -1.308219,1.38135 -0.186889,-0.154387 -0.186889,-0.268145 0,-0.487535 0.885689,-1.32447 0.893814,-0.845061 1.405726,-0.845061 0.698801,0 0.698801,0.893814 0,0.227517 -0.04063,0.609419 l -0.065,0.658173 -0.065,0.55254 -0.065,0.576916 q 0.958819,-1.430103 2.096401,-2.35642 1.145707,-0.934442 1.95014,-0.934442 0.788182,0 0.788182,1.096954 0,0.333149 -0.08938,0.999447 l -0.438782,3.030843 q -0.130009,0.910066 -0.130009,1.438229 0,0.42253 0.227516,0.42253 0.560665,0 1.381349,-1.495107 0.195014,0.121884 0.195014,0.251893 0,0.528163 -0.910065,1.389475 -0.90194,0.853186 -1.470731,0.853186 -0.633796,0 -0.633796,-0.910065 0,-0.666298 0.170638,-1.844508 l 0.284395,-1.966392 q 0.138135,-0.958819 0.138135,-1.519484 0,-0.641921 -0.446907,-0.641921 -1.040075,0 -2.112652,1.413851 -1.064452,1.405727 -1.243215,3.022718 z"
           id="path6877-8-8"
           style="fill:#1e648c;fill-opacity:1;stroke:none;stroke-opacity:1" /><path
           d="m 39.786887,60.888537 c 0.14626,0.08667 0.21939,0.170637 0.21939,0.251893 0,0.195014 -0.235642,0.579625 -0.706926,1.153833 -0.633795,0.780056 -1.221546,1.170084 -1.763252,1.170084 -0.395445,0 -0.593167,-0.262727 -0.593167,-0.788181 0,-0.222099 0.08126,-0.904649 0.243767,-2.047648 l 0.316898,-2.210159 0.08126,-0.560665 0.065,-0.446908 c 0.02709,-0.189597 0.04063,-0.3494 0.04063,-0.479409 0,-0.270853 -0.07584,-0.40628 -0.227516,-0.40628 -0.422531,0 -0.877563,0.465867 -1.365098,1.397601 -0.102924,-0.09209 -0.154386,-0.18418 -0.154386,-0.27627 0,-0.33044 0.303355,-0.774639 0.910065,-1.332596 0.612127,-0.557957 1.099663,-0.836935 1.462606,-0.836935 0.406279,0 0.609418,0.281687 0.609418,0.845061 0,0.108341 -0.02167,0.330441 -0.065,0.666298 l -0.07313,0.544414 c -0.0054,0.04333 -0.03519,0.262724 -0.08938,0.658173 l -0.333149,2.323917 -0.08126,0.520037 c -0.07042,0.514621 -0.105632,0.858604 -0.105632,1.03195 0,0.232933 0.06771,0.3494 0.203139,0.3494 0.455033,0 0.923608,-0.509203 1.405727,-1.52761 z"
           id="path6879-0-3"
           sodipodi:nodetypes="sscssccccsscscsscccccssss"
           style="fill:#1e648c;fill-opacity:1;stroke:none;stroke-opacity:1" /></g><text
         xml:space="preserve"
         style="font-style:normal;font-variant:normal;font-weight:normal;font-stretch:normal;font-size:15.0588px;line-height:11.5395px;font-family:Athelas;-inkscape-font-specification:Athelas;text-align:center;text-anchor:middle;fill:#1e648c;fill-opacity:1;stroke:none;stroke-width:0.167932;stroke-linecap:round;stroke-dasharray:none;stroke-opacity:1"
         x="119.02592"
         y="-27.989052"
         id="text4392-6-8"><tspan
           sodipodi:role="line"
           style="font-style:normal;font-variant:normal;font-weight:normal;font-stretch:normal;font-family:Athelas;-inkscape-font-specification:Athelas;fill:#1e648c;fill-opacity:1;stroke:none;stroke-width:0.167932;stroke-dasharray:none;stroke-opacity:1"
           x="119.02592"
           y="-27.989052"
           id="tspan4390-5-6">E</tspan></text><text
         xml:space="preserve"
         style="font-style:normal;font-variant:normal;font-weight:normal;font-stretch:normal;font-size:15.0588px;line-height:11.5395px;font-family:Athelas;-inkscape-font-specification:Athelas;text-align:center;text-anchor:middle;fill:#1e648c;fill-opacity:1;stroke:none;stroke-width:0.167932;stroke-linecap:round;stroke-dasharray:none;stroke-opacity:1"
         x="127.26305"
         y="-28.019173"
         id="text4815-7-1"><tspan
           style="font-style:normal;font-variant:normal;font-weight:normal;font-stretch:normal;font-family:Athelas;-inkscape-font-specification:Athelas;fill:#1e648c;fill-opacity:1;stroke:none;stroke-width:0.167932;stroke-dasharray:none;stroke-opacity:1"
           x="127.26305"
           y="-28.019173"
           id="tspan4813-3-9"
           sodipodi:role="line">R</tspan></text><text
         xml:space="preserve"
         style="font-style:normal;font-variant:normal;font-weight:normal;font-stretch:normal;font-size:15.0588px;line-height:11.5395px;font-family:Athelas;-inkscape-font-specification:Athelas;text-align:center;text-anchor:middle;fill:#1e648c;fill-opacity:1;stroke:none;stroke-width:0.167932;stroke-linecap:round;stroke-dasharray:none;stroke-opacity:1"
         x="136.04608"
         y="-27.973995"
         id="text4819-4-6"><tspan
           sodipodi:role="line"
           style="font-style:normal;font-variant:normal;font-weight:normal;font-stretch:normal;font-family:Athelas;-inkscape-font-specification:Athelas;fill:#1e648c;fill-opacity:1;stroke:none;stroke-width:0.167932;stroke-dasharray:none;stroke-opacity:1"
           x="136.04608"
           y="-27.973995"
           id="tspan4817-3-7">P</tspan></text><circle
         style="fill:#1e648c;fill-opacity:1;stroke:none;stroke-width:0.689833;stroke-linecap:round;stroke-dasharray:none;stroke-opacity:1"
         id="path6983-0-8"
         cx="110.7281"
         cy="-37.217625"
         r="0.64999998" /></g><circle
       style="fill:#1e648c;fill-opacity:1;stroke:none;stroke-width:1.82812;stroke-linecap:round;stroke-dasharray:none;stroke-opacity:1"
       id="path3548-6-9"
       cx="21.16667"
       cy="-59.31218"
       r="25.796864" /><text
       xml:space="preserve"
       style="font-style:normal;font-variant:normal;font-weight:normal;font-stretch:normal;font-size:61.7177px;line-height:9.65864px;font-family:'Apple Chancery';-inkscape-font-specification:'Apple Chancery';text-align:center;text-anchor:middle;fill:#dcdcdc;fill-opacity:1;stroke:none;stroke-width:1.82812;stroke-linecap:round;stroke-dasharray:none;stroke-opacity:1"
       x="19.539349"
       y="-45.284058"
       id="text3484-90-7"><tspan
         sodipodi:role="line"
         id="tspan3482-1-5"
         style="fill:#dcdcdc;fill-opacity:1;stroke:none;stroke-width:1.82812;stroke-dasharray:none;stroke-opacity:1"
         x="19.539349"
         y="-45.284058">m</tspan></text></g></svg>
